<!DOCTYPE svg PUBLIC "-//W3C//DTD SVG 1.1//EN" "http://www.w3.org/Graphics/SVG/1.1/DTD/svg11.dtd"><svg aria-hidden="true" xmlns="http://www.w3.org/2000/svg" xmlns:xlink="http://www.w3.org/1999/xlink"><symbol viewBox="0 0 24 24" fill="none" id="arrow" xmlns="http://www.w3.org/2000/svg">
<path d="M12 4V20M12 4L8 8M12 4L16 8" stroke="currentColor" stroke-width="2" stroke-linecap="round" stroke-linejoin="round"/>
</symbol><symbol viewBox="0 0 24 24" fill="none" id="cart" xmlns="http://www.w3.org/2000/svg">
<path d="M6.29977 5H21L19 12H7.37671M20 16H8L6 3H3M9 20C9 20.5523 8.55228 21 8 21C7.44772 21 7 20.5523 7 20C7 19.4477 7.44772 19 8 19C8.55228 19 9 19.4477 9 20ZM20 20C20 20.5523 19.5523 21 19 21C18.4477 21 18 20.5523 18 20C18 19.4477 18.4477 19 19 19C19.5523 19 20 19.4477 20 20Z" stroke="currentColor" stroke-width="2" stroke-linecap="round" stroke-linejoin="round"/>
</symbol><symbol viewBox="0 0 24 24" fill="none" id="email" xmlns="http://www.w3.org/2000/svg">
<path d="M4 7.00005L10.2 11.65C11.2667 12.45 12.7333 12.45 13.8 11.65L20 7" stroke="currentColor" stroke-width="2" stroke-linecap="round" stroke-linejoin="round"/>
<rect x="3" y="5" width="18" height="14" rx="2" stroke="currentColor" stroke-width="2" stroke-linecap="round"/>
</symbol><symbol fill="currentColor" preserveAspectRatio="xMidYMid" viewBox="0 0 14.906 32" id="facebook" xmlns="http://www.w3.org/2000/svg">
    <path d="M14.874,11.167 L14.262,14.207 C14.062,15.208 13.100,15.992 12.072,15.992 L10.000,15.992 L10.000,30.000 C10.000,31.104 9.159,32.000 8.049,32.000 L5.030,32.000 C3.920,32.000 3.017,31.102 3.017,29.999 L3.017,15.992 L2.011,15.992 C0.901,15.992 -0.002,15.095 -0.002,13.991 L-0.002,10.990 C-0.002,9.887 0.901,8.989 2.011,8.989 L3.017,8.989 L3.017,6.003 C3.017,2.716 5.693,0.041 8.994,0.013 C9.015,0.012 9.033,0.001 9.055,0.001 L13.081,0.001 C13.636,0.001 14.000,0.448 14.000,1.000 L14.000,6.000 C14.000,6.553 13.636,7.004 13.081,7.004 L10.061,7.004 L10.060,8.989 L13.079,8.989 C13.645,8.989 14.167,9.228 14.509,9.644 C14.852,10.059 14.985,10.615 14.874,11.167 ZM9.092,10.990 C9.078,10.991 9.067,10.998 9.053,10.998 L9.053,10.998 C8.497,10.997 8.046,10.549 8.047,9.997 L8.047,9.990 C8.047,9.990 8.047,9.990 8.047,9.990 C8.047,9.990 8.047,9.990 8.047,9.990 L8.049,6.003 C8.049,5.450 8.499,5.003 9.055,5.003 L12.074,5.003 L12.074,2.002 L9.094,2.002 C9.077,2.002 9.063,2.011 9.045,2.011 C6.831,2.011 5.030,3.802 5.030,6.003 L5.030,10.005 C5.030,10.558 4.579,11.006 4.023,11.006 C3.996,11.006 3.973,10.992 3.946,10.990 L2.011,10.990 L2.011,13.991 L4.023,13.991 C4.579,13.991 5.030,14.439 5.030,14.992 C5.030,15.044 5.008,15.088 5.000,15.138 L5.000,30.000 L8.049,29.999 L8.049,15.002 C8.049,14.998 8.047,14.995 8.047,14.992 C8.047,14.439 8.497,13.991 9.053,13.991 L12.072,13.991 C12.145,13.991 12.275,13.886 12.288,13.816 L12.857,10.990 L9.092,10.990 Z"/>
</symbol><symbol id="favourite" viewBox="0 0 249.3 249.3" xml:space="preserve" xmlns="http://www.w3.org/2000/svg">
<path d="M249.183,88.644c-0.94-17.571-8.379-34.07-20.947-46.458c-12.756-12.574-29.414-19.499-46.904-19.499  c-26.191,0-44.735,20.23-54.697,31.099c-0.567,0.618-1.176,1.282-1.771,1.924c-0.319-0.362-0.636-0.723-0.938-1.067  C114.82,44.27,95.87,22.687,67.972,22.687c-17.49,0-34.147,6.925-46.903,19.499C8.5,54.574,1.061,71.073,0.121,88.644  c-0.934,17.467,3.507,32.624,14.396,49.146c9.759,14.811,35.173,38.228,53.97,53.78c19.32,15.986,44.767,35.042,56.272,35.042  c11.686,0,37.043-19.016,56.256-34.968c18.651-15.485,43.925-38.883,53.775-53.86C242.119,126.64,250.379,110.983,249.183,88.644z   M222.258,129.542c-7.157,10.885-27.331,30.995-50.201,50.044c-27.269,22.714-43.414,31.666-47.286,32.022  c-3.866-0.403-20.051-9.445-47.453-32.201c-23.004-19.104-43.208-39.146-50.276-49.871c-9.011-13.672-12.694-26.036-11.943-40.092  c1.527-28.539,25.246-51.758,52.872-51.758c21.107,0,36.443,17.468,44.683,26.851c4.844,5.518,7.513,8.557,11.999,8.557  c4.631,0,7.618-3.259,13.04-9.174c8.994-9.813,24.047-26.234,43.639-26.234c27.627,0,51.345,23.219,52.873,51.758  C234.965,103.659,231.392,115.652,222.258,129.542z"/>
</symbol><symbol viewBox="0 0 24 24" fill="none" id="instagram" xmlns="http://www.w3.org/2000/svg">
<path fill-rule="evenodd" clip-rule="evenodd" d="M12 18C15.3137 18 18 15.3137 18 12C18 8.68629 15.3137 6 12 6C8.68629 6 6 8.68629 6 12C6 15.3137 8.68629 18 12 18ZM12 16C14.2091 16 16 14.2091 16 12C16 9.79086 14.2091 8 12 8C9.79086 8 8 9.79086 8 12C8 14.2091 9.79086 16 12 16Z" fill="currentColor"/>
<path d="M18 5C17.4477 5 17 5.44772 17 6C17 6.55228 17.4477 7 18 7C18.5523 7 19 6.55228 19 6C19 5.44772 18.5523 5 18 5Z" fill="currentColor"/>
<path fill-rule="evenodd" clip-rule="evenodd" d="M1.65396 4.27606C1 5.55953 1 7.23969 1 10.6V13.4C1 16.7603 1 18.4405 1.65396 19.7239C2.2292 20.8529 3.14708 21.7708 4.27606 22.346C5.55953 23 7.23969 23 10.6 23H13.4C16.7603 23 18.4405 23 19.7239 22.346C20.8529 21.7708 21.7708 20.8529 22.346 19.7239C23 18.4405 23 16.7603 23 13.4V10.6C23 7.23969 23 5.55953 22.346 4.27606C21.7708 3.14708 20.8529 2.2292 19.7239 1.65396C18.4405 1 16.7603 1 13.4 1H10.6C7.23969 1 5.55953 1 4.27606 1.65396C3.14708 2.2292 2.2292 3.14708 1.65396 4.27606ZM13.4 3H10.6C8.88684 3 7.72225 3.00156 6.82208 3.0751C5.94524 3.14674 5.49684 3.27659 5.18404 3.43597C4.43139 3.81947 3.81947 4.43139 3.43597 5.18404C3.27659 5.49684 3.14674 5.94524 3.0751 6.82208C3.00156 7.72225 3 8.88684 3 10.6V13.4C3 15.1132 3.00156 16.2777 3.0751 17.1779C3.14674 18.0548 3.27659 18.5032 3.43597 18.816C3.81947 19.5686 4.43139 20.1805 5.18404 20.564C5.49684 20.7234 5.94524 20.8533 6.82208 20.9249C7.72225 20.9984 8.88684 21 10.6 21H13.4C15.1132 21 16.2777 20.9984 17.1779 20.9249C18.0548 20.8533 18.5032 20.7234 18.816 20.564C19.5686 20.1805 20.1805 19.5686 20.564 18.816C20.7234 18.5032 20.8533 18.0548 20.9249 17.1779C20.9984 16.2777 21 15.1132 21 13.4V10.6C21 8.88684 20.9984 7.72225 20.9249 6.82208C20.8533 5.94524 20.7234 5.49684 20.564 5.18404C20.1805 4.43139 19.5686 3.81947 18.816 3.43597C18.5032 3.27659 18.0548 3.14674 17.1779 3.0751C16.2777 3.00156 15.1132 3 13.4 3Z" fill="currentColor"/>
</symbol><symbol viewBox="0 0 24 24" fill="none" id="search" xmlns="http://www.w3.org/2000/svg">
<path d="M15.7955 15.8111L21 21M18 10.5C18 14.6421 14.6421 18 10.5 18C6.35786 18 3 14.6421 3 10.5C3 6.35786 6.35786 3 10.5 3C14.6421 3 18 6.35786 18 10.5Z" stroke="currentColor" stroke-width="2" stroke-linecap="round" stroke-linejoin="round"/>
</symbol><symbol viewBox="0 0 24 24" fill="none" id="telegram" xmlns="http://www.w3.org/2000/svg">
<path fill-rule="evenodd" clip-rule="evenodd" d="M23.1117 4.49449C23.4296 2.94472 21.9074 1.65683 20.4317 2.227L2.3425 9.21601C0.694517 9.85273 0.621087 12.1572 2.22518 12.8975L6.1645 14.7157L8.03849 21.2746C8.13583 21.6153 8.40618 21.8791 8.74917 21.968C9.09216 22.0568 9.45658 21.9576 9.70712 21.707L12.5938 18.8203L16.6375 21.8531C17.8113 22.7334 19.5019 22.0922 19.7967 20.6549L23.1117 4.49449ZM3.0633 11.0816L21.1525 4.0926L17.8375 20.2531L13.1 16.6999C12.7019 16.4013 12.1448 16.4409 11.7929 16.7928L10.5565 18.0292L10.928 15.9861L18.2071 8.70703C18.5614 8.35278 18.5988 7.79106 18.2947 7.39293C17.9906 6.99479 17.4389 6.88312 17.0039 7.13168L6.95124 12.876L3.0633 11.0816ZM8.17695 14.4791L8.78333 16.6015L9.01614 15.321C9.05253 15.1209 9.14908 14.9366 9.29291 14.7928L11.5128 12.573L8.17695 14.4791Z" fill="currentColor"/>
</symbol><symbol viewBox="0 0 24 24" fill="none" id="user" xmlns="http://www.w3.org/2000/svg">
<path d="M16 7C16 9.20914 14.2091 11 12 11C9.79086 11 8 9.20914 8 7C8 4.79086 9.79086 3 12 3C14.2091 3 16 4.79086 16 7Z" stroke="currentColor" stroke-width="2" stroke-linecap="round" stroke-linejoin="round"/>
<path d="M12 14C8.13401 14 5 17.134 5 21H19C19 17.134 15.866 14 12 14Z" stroke="currentColor" stroke-width="2" stroke-linecap="round" stroke-linejoin="round"/>
</symbol></svg>